<svg width="76" height="103" viewBox="0 0 76 103" fill="none" xmlns="http://www.w3.org/2000/svg">
<path d="M72.488 0.191999C73.272 1.424 73.944 3.10399 74.504 5.23199C75.176 7.24799 75.512 9.37599 75.512 11.616C75.512 15.984 74.56 19.12 72.656 21.024C70.864 22.816 68.4 23.712 65.264 23.712H29.984V42.696H66.776C67.672 43.928 68.4 45.552 68.96 47.568C69.632 49.584 69.968 51.712 69.968 53.952C69.968 58.208 69.016 61.288 67.112 63.192C65.32 64.984 62.856 65.88 59.72 65.88H30.32V101.328C29.088 101.664 27.128 102 24.44 102.336C21.864 102.672 19.288 102.84 16.712 102.84C14.136 102.84 11.84 102.616 9.824 102.168C7.92 101.832 6.296 101.16 4.952 100.152C3.608 99.144 2.6 97.744 1.928 95.952C1.256 94.16 0.920001 91.808 0.920001 88.896V15.816C0.920001 11 2.32 7.19199 5.12 4.39199C7.92 1.592 11.728 0.191999 16.544 0.191999H72.488Z" fill="url(#paint0_linear_408_2194)"/>
<defs>
<linearGradient id="paint0_linear_408_2194" x1="18.75" y1="47.5" x2="100.03" y2="-10.5778" gradientUnits="userSpaceOnUse">
<stop stop-color="#F7426D"/>
<stop offset="1" stop-color="#732975"/>
</linearGradient>
</defs>
</svg>
