<svg width="67" height="41" viewBox="0 0 67 41" fill="none" xmlns="http://www.w3.org/2000/svg">
<path d="M27.424 0.966C27.7227 1.43533 27.9787 2.07533 28.192 2.886C28.448 3.654 28.576 4.46466 28.576 5.318C28.576 6.982 28.2133 8.17667 27.488 8.902C26.8053 9.58467 25.8667 9.926 24.672 9.926H11.232V17.158H25.248C25.5893 17.6273 25.8667 18.246 26.08 19.014C26.336 19.782 26.464 20.5927 26.464 21.446C26.464 23.0673 26.1013 24.2407 25.376 24.966C24.6933 25.6487 23.7547 25.99 22.56 25.99H11.36V39.494C10.8907 39.622 10.144 39.75 9.12 39.878C8.13867 40.006 7.15733 40.07 6.176 40.07C5.19467 40.07 4.32 39.9847 3.552 39.814C2.82667 39.686 2.208 39.43 1.696 39.046C1.184 38.662 0.8 38.1287 0.544 37.446C0.288 36.7633 0.16 35.8673 0.16 34.758V6.918C0.16 5.08333 0.693334 3.63266 1.76 2.566C2.82667 1.49933 4.27733 0.966 6.112 0.966H27.424ZM33.38 38.346C33.5273 38.346 33.6877 38.333 33.861 38.307C34.043 38.2723 34.1773 38.229 34.264 38.177V37.137L33.328 37.215C33.0853 37.2323 32.886 37.2843 32.73 37.371C32.574 37.4577 32.496 37.5877 32.496 37.761C32.496 37.9343 32.561 38.0773 32.691 38.19C32.8297 38.294 33.0593 38.346 33.38 38.346ZM33.276 33.237C33.744 33.237 34.1687 33.2847 34.55 33.38C34.94 33.4753 35.2693 33.6227 35.538 33.822C35.8153 34.0127 36.0277 34.2597 36.175 34.563C36.3223 34.8577 36.396 35.2087 36.396 35.616V38.528C36.396 38.7533 36.331 38.9397 36.201 39.087C36.0797 39.2257 35.9323 39.347 35.759 39.451C35.1957 39.789 34.4027 39.958 33.38 39.958C32.9207 39.958 32.5047 39.9147 32.132 39.828C31.768 39.7413 31.4517 39.6113 31.183 39.438C30.923 39.2647 30.7193 39.0437 30.572 38.775C30.4333 38.5063 30.364 38.1943 30.364 37.839C30.364 37.241 30.5417 36.7817 30.897 36.461C31.2523 36.1403 31.8027 35.941 32.548 35.863L34.251 35.681V35.59C34.251 35.3387 34.1383 35.161 33.913 35.057C33.6963 34.9443 33.38 34.888 32.964 34.888C32.6347 34.888 32.314 34.9227 32.002 34.992C31.69 35.0613 31.4083 35.148 31.157 35.252C31.0443 35.174 30.949 35.057 30.871 34.901C30.793 34.7363 30.754 34.5673 30.754 34.394C30.754 34.1687 30.806 33.991 30.91 33.861C31.0227 33.7223 31.1917 33.6053 31.417 33.51C31.6683 33.4147 31.963 33.3453 32.301 33.302C32.6477 33.2587 32.9727 33.237 33.276 33.237ZM37.4743 36.591C37.4743 36.019 37.561 35.525 37.7343 35.109C37.9076 34.6843 38.146 34.3333 38.4493 34.056C38.7613 33.7787 39.121 33.575 39.5283 33.445C39.9443 33.3063 40.3906 33.237 40.8673 33.237C41.0406 33.237 41.2096 33.2543 41.3743 33.289C41.539 33.315 41.6733 33.3497 41.7773 33.393V31.287C41.864 31.261 42.0026 31.235 42.1933 31.209C42.384 31.1743 42.579 31.157 42.7783 31.157C42.969 31.157 43.138 31.17 43.2853 31.196C43.4413 31.222 43.5713 31.274 43.6753 31.352C43.7793 31.43 43.8573 31.5383 43.9093 31.677C43.9613 31.807 43.9873 31.9803 43.9873 32.197V38.359C43.9873 38.7663 43.7966 39.0913 43.4153 39.334C43.164 39.4987 42.839 39.6417 42.4403 39.763C42.0416 39.893 41.5823 39.958 41.0623 39.958C40.499 39.958 39.992 39.88 39.5413 39.724C39.0993 39.568 38.7223 39.3427 38.4103 39.048C38.107 38.7533 37.873 38.4023 37.7083 37.995C37.5523 37.579 37.4743 37.111 37.4743 36.591ZM41.1663 34.966C40.6983 34.966 40.3386 35.1003 40.0873 35.369C39.836 35.6377 39.7103 36.045 39.7103 36.591C39.7103 37.1283 39.8273 37.5357 40.0613 37.813C40.2953 38.0817 40.6333 38.216 41.0753 38.216C41.2313 38.216 41.37 38.1943 41.4913 38.151C41.6213 38.099 41.721 38.0427 41.7903 37.982V35.122C41.617 35.018 41.409 34.966 41.1663 34.966ZM48.3935 33.237C48.7488 33.237 49.0955 33.289 49.4335 33.393C49.7801 33.4883 50.0791 33.6357 50.3305 33.835C50.5905 33.6617 50.8808 33.5187 51.2015 33.406C51.5308 33.2933 51.9251 33.237 52.3845 33.237C52.7138 33.237 53.0345 33.2803 53.3465 33.367C53.6671 33.4537 53.9488 33.5923 54.1915 33.783C54.4428 33.965 54.6421 34.212 54.7895 34.524C54.9368 34.8273 55.0105 35.2 55.0105 35.642V39.737C54.9238 39.763 54.7851 39.789 54.5945 39.815C54.4125 39.841 54.2218 39.854 54.0225 39.854C53.8318 39.854 53.6585 39.841 53.5025 39.815C53.3551 39.789 53.2295 39.737 53.1255 39.659C53.0215 39.581 52.9391 39.477 52.8785 39.347C52.8265 39.2083 52.8005 39.0307 52.8005 38.814V35.707C52.8005 35.447 52.7268 35.2607 52.5795 35.148C52.4321 35.0267 52.2328 34.966 51.9815 34.966C51.8601 34.966 51.7301 34.9963 51.5915 35.057C51.4528 35.109 51.3488 35.1653 51.2795 35.226C51.2881 35.2607 51.2925 35.2953 51.2925 35.33C51.2925 35.356 51.2925 35.382 51.2925 35.408V39.737C51.1971 39.763 51.0541 39.789 50.8635 39.815C50.6815 39.841 50.4951 39.854 50.3045 39.854C50.1138 39.854 49.9405 39.841 49.7845 39.815C49.6371 39.789 49.5115 39.737 49.4075 39.659C49.3035 39.581 49.2211 39.477 49.1605 39.347C49.1085 39.2083 49.0825 39.0307 49.0825 38.814V35.707C49.0825 35.447 49.0001 35.2607 48.8355 35.148C48.6795 35.0267 48.4888 34.966 48.2635 34.966C48.1075 34.966 47.9731 34.992 47.8605 35.044C47.7478 35.0873 47.6525 35.1307 47.5745 35.174V39.737C47.4878 39.763 47.3491 39.789 47.1585 39.815C46.9765 39.841 46.7858 39.854 46.5865 39.854C46.3958 39.854 46.2225 39.841 46.0665 39.815C45.9191 39.789 45.7935 39.737 45.6895 39.659C45.5855 39.581 45.5031 39.477 45.4425 39.347C45.3905 39.2083 45.3645 39.0307 45.3645 38.814V34.888C45.3645 34.654 45.4121 34.4677 45.5075 34.329C45.6115 34.1903 45.7501 34.0603 45.9235 33.939C46.2181 33.731 46.5821 33.562 47.0155 33.432C47.4575 33.302 47.9168 33.237 48.3935 33.237ZM56.3066 31.677C56.3066 31.3477 56.415 31.0703 56.6316 30.845C56.857 30.6197 57.1516 30.507 57.5156 30.507C57.8796 30.507 58.17 30.6197 58.3866 30.845C58.612 31.0703 58.7246 31.3477 58.7246 31.677C58.7246 32.0063 58.612 32.2837 58.3866 32.509C58.17 32.7343 57.8796 32.847 57.5156 32.847C57.1516 32.847 56.857 32.7343 56.6316 32.509C56.415 32.2837 56.3066 32.0063 56.3066 31.677ZM58.6206 39.737C58.5253 39.7543 58.3823 39.776 58.1916 39.802C58.0096 39.8367 57.8233 39.854 57.6326 39.854C57.442 39.854 57.2686 39.841 57.1126 39.815C56.9653 39.789 56.8396 39.737 56.7356 39.659C56.6316 39.581 56.5493 39.477 56.4886 39.347C56.4366 39.2083 56.4106 39.0307 56.4106 38.814V33.523C56.506 33.5057 56.6446 33.484 56.8266 33.458C57.0173 33.4233 57.208 33.406 57.3986 33.406C57.5893 33.406 57.7583 33.419 57.9056 33.445C58.0616 33.471 58.1916 33.523 58.2956 33.601C58.3996 33.679 58.4776 33.7873 58.5296 33.926C58.5903 34.056 58.6206 34.2293 58.6206 34.446V39.737ZM64.0316 35.746C64.0316 35.4773 63.9536 35.2823 63.7976 35.161C63.6502 35.031 63.4466 34.966 63.1866 34.966C63.0132 34.966 62.8399 34.9877 62.6666 35.031C62.5019 35.0743 62.3589 35.1393 62.2376 35.226V39.737C62.1509 39.763 62.0122 39.789 61.8216 39.815C61.6396 39.841 61.4489 39.854 61.2496 39.854C61.0589 39.854 60.8856 39.841 60.7296 39.815C60.5822 39.789 60.4566 39.737 60.3526 39.659C60.2486 39.581 60.1662 39.477 60.1056 39.347C60.0536 39.2083 60.0276 39.0307 60.0276 38.814V34.914C60.0276 34.68 60.0752 34.4893 60.1706 34.342C60.2746 34.1947 60.4132 34.0603 60.5866 33.939C60.8812 33.731 61.2496 33.562 61.6916 33.432C62.1422 33.302 62.6406 33.237 63.1866 33.237C64.1659 33.237 64.9199 33.4537 65.4486 33.887C65.9772 34.3117 66.2416 34.9053 66.2416 35.668V39.737C66.1549 39.763 66.0162 39.789 65.8256 39.815C65.6436 39.841 65.4529 39.854 65.2536 39.854C65.0629 39.854 64.8896 39.841 64.7336 39.815C64.5862 39.789 64.4606 39.737 64.3566 39.659C64.2526 39.581 64.1702 39.477 64.1096 39.347C64.0576 39.2083 64.0316 39.0307 64.0316 38.814V35.746Z" fill="#0C0B0B"/>
</svg>
