<svg width="231" height="231" viewBox="0 0 231 231" fill="none" xmlns="http://www.w3.org/2000/svg">
<g clip-path="url(#clip0_601_323)">
<rect width="231" height="231" rx="29" fill="black"/>
<path d="M64.346 173.44C64.0934 173.572 63.9351 173.834 63.9351 174.118V193.624C63.9351 193.941 64.1304 194.225 64.4269 194.338L79.8981 200.25C80.1359 200.34 80.402 200.307 80.6099 200.161L140.95 157.865C141.451 157.515 141.358 156.746 140.788 156.526L115.856 146.861C115.65 146.782 115.42 146.794 115.225 146.896L64.346 173.44Z" fill="url(#paint0_linear_601_323)"/>
<path d="M107.497 133.395C107.497 133.679 107.339 133.941 107.086 134.072L65.0252 156.012C64.516 156.277 63.9067 155.907 63.9067 155.333V37.8307C63.9067 37.5246 64.0891 37.2479 64.3707 37.1275L79.0209 30.8611C79.2644 30.7569 79.5445 30.7863 79.762 30.939L107.173 50.2435C107.377 50.3864 107.497 50.6198 107.497 50.8686V133.395Z" fill="url(#paint1_linear_601_323)"/>
<path d="M123.764 61.9277C123.257 61.5711 122.559 61.9335 122.559 62.5534V132.678C122.559 132.994 122.753 133.277 123.048 133.391L156.745 146.469C156.983 146.561 157.252 146.529 157.462 146.381L187.097 125.543C187.301 125.4 187.422 125.166 187.422 124.917V107.158C187.422 106.909 187.301 106.675 187.098 106.532L123.764 61.9277Z" fill="url(#paint2_linear_601_323)"/>
</g>
<defs>
<linearGradient id="paint0_linear_601_323" x1="102.606" y1="146.809" x2="102.606" y2="200.3" gradientUnits="userSpaceOnUse">
<stop stop-color="#F8436E"/>
<stop offset="1" stop-color="#9C3173"/>
</linearGradient>
<linearGradient id="paint1_linear_601_323" x1="85.7018" y1="30.7995" x2="85.7018" y2="156.099" gradientUnits="userSpaceOnUse">
<stop stop-color="#F8436E"/>
<stop offset="1" stop-color="#9C3173"/>
</linearGradient>
<linearGradient id="paint2_linear_601_323" x1="154.991" y1="61.787" x2="154.991" y2="146.521" gradientUnits="userSpaceOnUse">
<stop stop-color="#F8436E"/>
<stop offset="1" stop-color="#9C3173"/>
</linearGradient>
<clipPath id="clip0_601_323">
<rect width="231" height="231" rx="29" fill="white"/>
</clipPath>
</defs>
</svg>
