<svg width="231" height="231" viewBox="0 0 231 231" fill="none" xmlns="http://www.w3.org/2000/svg">
<path d="M82.7306 217.994C82.4057 218.165 82.2021 218.501 82.2021 218.866V243.945C82.2021 244.353 82.4534 244.718 82.8345 244.864L102.726 252.464C103.032 252.581 103.374 252.537 103.641 252.35L181.221 197.969C181.865 197.519 181.745 196.531 181.013 196.247L148.957 183.821C148.693 183.719 148.397 183.735 148.146 183.867L82.7306 217.994Z" fill="url(#paint0_linear_601_336)"/>
<path d="M138.21 166.508C138.21 166.873 138.007 167.21 137.682 167.379L83.6037 195.586C82.9491 195.927 82.1658 195.452 82.1658 194.713V43.6395C82.1658 43.2459 82.4003 42.8902 82.7622 42.7354L101.598 34.6786C101.911 34.5446 102.271 34.5824 102.551 34.7788L137.793 59.5987C138.056 59.7825 138.21 60.0826 138.21 60.4025V166.508Z" fill="url(#paint1_linear_601_336)"/>
<path d="M159.125 74.6214C158.474 74.1629 157.576 74.6288 157.576 75.4258V165.586C157.576 165.992 157.825 166.356 158.204 166.503L201.529 183.317C201.836 183.436 202.181 183.394 202.451 183.205L240.553 156.412C240.815 156.228 240.971 155.928 240.971 155.608V132.775C240.971 132.454 240.815 132.154 240.554 131.97L159.125 74.6214Z" fill="url(#paint2_linear_601_336)"/>
<defs>
<linearGradient id="paint0_linear_601_336" x1="131.921" y1="183.755" x2="131.921" y2="252.529" gradientUnits="userSpaceOnUse">
<stop stop-color="#F8436E"/>
<stop offset="1" stop-color="#9C3173"/>
</linearGradient>
<linearGradient id="paint1_linear_601_336" x1="110.188" y1="34.5994" x2="110.188" y2="195.699" gradientUnits="userSpaceOnUse">
<stop stop-color="#F8436E"/>
<stop offset="1" stop-color="#9C3173"/>
</linearGradient>
<linearGradient id="paint2_linear_601_336" x1="199.273" y1="74.4405" x2="199.273" y2="183.384" gradientUnits="userSpaceOnUse">
<stop stop-color="#F8436E"/>
<stop offset="1" stop-color="#9C3173"/>
</linearGradient>
</defs>
</svg>
