<svg width="231" height="231" viewBox="0 0 231 231" fill="none" xmlns="http://www.w3.org/2000/svg">
<rect width="231" height="231" rx="29" fill="black"/>
<path d="M68.7748 168.424C68.544 168.545 68.3994 168.783 68.3994 169.043V186.86C68.3994 187.149 68.5779 187.409 68.8487 187.513L82.9804 192.912C83.1975 192.995 83.4406 192.964 83.6305 192.831L138.746 154.197C139.204 153.877 139.119 153.175 138.598 152.974L115.825 144.145C115.637 144.073 115.427 144.085 115.248 144.178L68.7748 168.424Z" fill="white"/>
<path d="M108.19 131.845C108.19 132.105 108.045 132.344 107.814 132.464L69.3951 152.504C68.93 152.746 68.3735 152.409 68.3735 151.884V44.5553C68.3735 44.2757 68.5401 44.023 68.7973 43.913L82.1791 38.1892C82.4015 38.0939 82.6574 38.1208 82.856 38.2603L107.893 55.8934C108.08 56.0239 108.19 56.2371 108.19 56.4644V131.845Z" fill="white"/>
<path d="M123.048 66.566C122.586 66.2403 121.948 66.5713 121.948 67.1375V131.19C121.948 131.479 122.124 131.738 122.394 131.842L153.174 143.788C153.392 143.872 153.637 143.842 153.829 143.708L180.898 124.673C181.084 124.543 181.195 124.329 181.195 124.102V107.88C181.195 107.653 181.084 107.439 180.899 107.309L123.048 66.566Z" fill="white"/>
</svg>
