<svg width="24" height="25" viewBox="0 0 19 20" fill="none" xmlns="http://www.w3.org/2000/svg">
<path d="M0.923828 15.3887C0.923828 16.0918 1.4707 16.5606 2.36914 16.5606H6.23633C6.31445 18.3379 7.7207 19.9199 9.72266 19.9199C11.7246 19.9199 13.1309 18.3477 13.2188 16.5606H17.0762C17.9746 16.5606 18.5215 16.0918 18.5215 15.3887C18.5215 14.4414 17.5938 13.6113 16.7832 12.791C16.1582 12.1563 16.002 10.8574 15.9141 9.72462C15.8262 6.13087 14.8594 3.78712 12.418 2.89845C12.0957 1.68751 11.0898 0.740242 9.72266 0.740242C8.35547 0.740242 7.35938 1.68751 7.02734 2.89845C4.58594 3.78712 3.61914 6.13087 3.53125 9.72462C3.45312 10.8574 3.28711 12.1563 2.66211 12.791C1.85156 13.6113 0.923828 14.4414 0.923828 15.3887ZM2.85742 15.0762V14.959C3.05273 14.6953 3.59961 14.168 4.06836 13.6309C4.72266 12.8984 5.03516 11.6582 5.11328 9.8711C5.20117 5.93555 6.38281 4.65626 7.93555 4.23634C8.16992 4.17774 8.29688 4.07032 8.30664 3.82618C8.3457 2.86915 8.88281 2.21485 9.72266 2.21485C10.5625 2.21485 11.1094 2.86915 11.1387 3.82618C11.1582 4.07032 11.2852 4.17774 11.5098 4.23634C13.0625 4.65626 14.2441 5.93555 14.332 9.8711C14.4199 11.6582 14.7227 12.8984 15.377 13.6309C15.8555 14.168 16.3926 14.6953 16.5781 14.959V15.0762H2.85742ZM7.7793 16.5606H11.6758C11.6074 17.7813 10.8164 18.5625 9.72266 18.5625C8.62891 18.5625 7.84766 17.7813 7.7793 16.5606Z" fill="#969696"/>
</svg>
