<svg width="24" height="25" viewBox="0 0 24 25" fill="none" xmlns="http://www.w3.org/2000/svg">
<path fillRule="evenodd" clipRule="evenodd" d="M3 6.5C3 5.94772 3.44772 5.5 4 5.5H21C21.5523 5.5 22 5.94772 22 6.5C22 7.05228 21.5523 7.5 21 7.5H4C3.44772 7.5 3 7.05228 3 6.5ZM3 12.5C3 11.9477 3.44772 11.5 4 11.5H21C21.5523 11.5 22 11.9477 22 12.5C22 13.0523 21.5523 13.5 21 13.5H4C3.44772 13.5 3 13.0523 3 12.5ZM4 17.5C3.44772 17.5 3 17.9477 3 18.5C3 19.0523 3.44772 19.5 4 19.5H21C21.5523 19.5 22 19.0523 22 18.5C22 17.9477 21.5523 17.5 21 17.5H4Z" fill="white"/>
</svg>
