<svg width="9" height="15" viewBox="0 0 9 15" fill="none" xmlns="http://www.w3.org/2000/svg">
<path d="M8.16846 7.49634C8.16357 7.34497 8.13428 7.20581 8.08057 7.07886C8.02197 6.94702 7.93408 6.82251 7.81689 6.70533L2.16992 1.20484C1.98437 1.01441 1.75732 0.919189 1.48877 0.919189C1.3081 0.919189 1.14209 0.963136 0.990723 1.05103C0.839355 1.13892 0.719726 1.25855 0.631836 1.40992C0.543945 1.5564 0.5 1.71997 0.5 1.90064C0.5 2.17408 0.600098 2.41333 0.800293 2.61841L6.16162 7.82593V7.15943L0.800293 12.3816C0.600098 12.5867 0.5 12.8259 0.5 13.0994C0.5 13.28 0.543946 13.4461 0.631836 13.5974C0.719727 13.7439 0.839356 13.8611 0.990723 13.949C1.14209 14.0369 1.30811 14.0808 1.48877 14.0808C1.62549 14.0808 1.75 14.0589 1.8623 14.0149C1.97461 13.9661 2.07959 13.8953 2.17725 13.8025L7.81689 8.28736C8.05127 8.0481 8.16846 7.78443 8.16846 7.49634Z" fill="white" fill-opacity="0.6"/>
</svg>
