<svg width="24" height="15" viewBox="0 0 24 15" fill="none" xmlns="http://www.w3.org/2000/svg">
<path d="M3.5 11.3845C2.14458 11.6557 1.00005 12.2038 1.00005 13.0085C1.00005 13.1451 0.97178 13.9447 2.22732 13.9999H3.36366M20.5 11.3845C21.8554 11.6557 22.9999 12.2038 22.9999 13.0085C22.9999 13.1451 23.0282 13.9447 21.7727 13.9999H20.6363M14.6487 4.00684C14.6487 5.66747 13.4276 7.01367 11.9214 7.01367C10.4152 7.01367 9.19412 5.66747 9.19412 4.00684C9.19412 2.34621 10.4152 1 11.9214 1C13.4276 1 14.6487 2.34621 14.6487 4.00684ZM6.00007 12.6606C6.00007 11.0501 9.34907 10.2005 12 10.2005C14.651 10.2005 17.9999 11.0501 17.9999 12.6606C17.9999 12.8451 18.0376 13.9254 16.3636 13.9999C14.1818 13.9999 13.3625 14 12 14C10.6375 14 9.81824 13.9999 7.63643 13.9999C5.96237 13.9254 6.00007 12.8451 6.00007 12.6606ZM6.9375 6.25C6.9375 7.49264 6.05606 8.5 4.96875 8.5C3.88144 8.5 3 7.49264 3 6.25C3 5.00736 3.88144 4 4.96875 4C6.05606 4 6.9375 5.00736 6.9375 6.25ZM17.0625 6.25C17.0625 7.49264 17.9439 8.5 19.0312 8.5C20.1186 8.5 21 7.49264 21 6.25C21 5.00736 20.1186 4 19.0312 4C17.9439 4 17.0625 5.00736 17.0625 6.25Z" stroke="#969696" stroke-width="1.5" stroke-linecap="round"/>
</svg>
