<svg width="17" height="18" viewBox="0 0 17 18" fill="none" xmlns="http://www.w3.org/2000/svg">
<path d="M16.689 6.03418C16.689 5.38477 16.5938 4.77686 16.4033 4.21045C16.208 3.64404 15.937 3.146 15.5903 2.71631C15.2437 2.28174 14.8384 1.94238 14.3745 1.69824C13.9058 1.44922 13.3979 1.32471 12.8511 1.32471H10.5C10.0166 1.08545 9.4917 0.899902 8.92529 0.768066C8.35889 0.631348 7.76318 0.562988 7.13818 0.562988H6.12744C5.65381 0.562988 5.22168 0.577637 4.83105 0.606934C4.44043 0.63623 4.11328 0.685059 3.84961 0.753418C3.30273 0.885254 2.86816 1.13672 2.5459 1.50781C2.21875 1.87891 2.05518 2.30615 2.05518 2.78955C2.05518 2.86768 2.0625 2.94336 2.07715 3.0166C2.08691 3.08984 2.10156 3.16309 2.12109 3.23633C1.61328 3.65137 1.35938 4.18359 1.35938 4.83301C1.35938 5.11621 1.4082 5.375 1.50586 5.60937C1.33984 5.79492 1.21533 6.00732 1.13232 6.24658C1.04443 6.49072 1.00049 6.74707 1.00049 7.01562C1.00049 7.18652 1.02002 7.35498 1.05908 7.521C1.09326 7.68701 1.14453 7.83838 1.21289 7.9751C1.00781 8.30713 0.905273 8.70508 0.905273 9.16895C0.905273 9.56445 0.998047 9.9209 1.18359 10.2383C1.36426 10.5557 1.61084 10.8071 1.92334 10.9927C2.23584 11.1782 2.58984 11.271 2.98535 11.271H5.60742C5.6709 11.271 5.72461 11.2856 5.76855 11.3149C5.80762 11.3442 5.82471 11.3906 5.81982 11.4541C5.80029 11.6299 5.73193 11.8618 5.61475 12.1499C5.49268 12.4429 5.35596 12.7676 5.20459 13.124C5.05322 13.4854 4.92139 13.8564 4.80908 14.2373C4.69189 14.6182 4.6333 14.9893 4.6333 15.3506C4.6333 15.7314 4.71631 16.0659 4.88232 16.354C5.04346 16.647 5.26562 16.8765 5.54883 17.0425C5.83203 17.2134 6.15674 17.2988 6.52295 17.2988C6.91357 17.2988 7.25537 17.189 7.54834 16.9692C7.84131 16.7495 8.11475 16.3979 8.36865 15.9146C8.59326 15.4849 8.83252 15.0601 9.08643 14.6401C9.34033 14.2251 9.61377 13.8101 9.90674 13.395C10.1948 12.98 10.5049 12.5552 10.8369 12.1206C11.1641 11.6909 11.5181 11.2417 11.8989 10.7729H13.1221C13.8057 10.7729 14.4185 10.5605 14.9604 10.1357C15.4976 9.71094 15.9199 9.13965 16.2275 8.42188C16.5352 7.70898 16.689 6.91309 16.689 6.03418ZM12.0308 6.1001C12.0308 6.60303 11.9917 7.05469 11.9136 7.45508C11.8306 7.86035 11.6938 8.25342 11.5034 8.63428C11.313 9.01514 11.0566 9.42041 10.7344 9.8501C10.373 10.3384 9.97754 10.8584 9.54785 11.4102C9.11328 11.9619 8.68115 12.5527 8.25146 13.1826C7.81689 13.8174 7.42139 14.4961 7.06494 15.2187C6.9624 15.4189 6.87207 15.5508 6.79395 15.6143C6.71582 15.6777 6.62549 15.7095 6.52295 15.7095C6.40088 15.7095 6.30322 15.6655 6.22998 15.5776C6.15674 15.4946 6.12012 15.3774 6.12012 15.2261C6.12012 14.9819 6.18115 14.6938 6.30322 14.3618C6.42529 14.0298 6.56689 13.6831 6.72803 13.3218C6.88428 12.9604 7.02344 12.6016 7.14551 12.2451C7.2627 11.8936 7.32129 11.5688 7.32129 11.271C7.32129 10.8218 7.1626 10.4604 6.84521 10.187C6.52295 9.91846 6.11523 9.78418 5.62207 9.78418H3.03662C2.85596 9.78418 2.70215 9.7207 2.5752 9.59375C2.44824 9.47168 2.38477 9.31787 2.38477 9.13232C2.38477 9.00049 2.40918 8.8833 2.45801 8.78076C2.50684 8.68311 2.58496 8.57812 2.69238 8.46582C2.80957 8.35352 2.87549 8.21924 2.89014 8.06299C2.8999 7.90674 2.85352 7.7749 2.75098 7.66748C2.6582 7.53564 2.59229 7.4209 2.55322 7.32324C2.50928 7.23047 2.4873 7.12793 2.4873 7.01562C2.4873 6.88379 2.51904 6.76172 2.58252 6.64941C2.646 6.53711 2.74365 6.43213 2.87549 6.33447C3.01709 6.23193 3.10986 6.1001 3.15381 5.93896C3.19287 5.77783 3.17334 5.61426 3.09521 5.44824C3.02197 5.31641 2.96826 5.20654 2.93408 5.11865C2.8999 5.03564 2.88281 4.94531 2.88281 4.84766C2.88281 4.5498 3.08545 4.29346 3.49072 4.07861C3.62744 3.99561 3.71533 3.8833 3.75439 3.7417C3.79346 3.60498 3.78613 3.46826 3.73242 3.33154C3.66406 3.16553 3.62256 3.05322 3.60791 2.99463C3.58838 2.93604 3.57861 2.87012 3.57861 2.79687C3.57861 2.66016 3.63232 2.54053 3.73975 2.43799C3.84229 2.33057 4.00586 2.24756 4.23047 2.18896C4.43555 2.14014 4.70898 2.10352 5.05078 2.0791C5.3877 2.05469 5.78809 2.04248 6.25195 2.04248L7.07227 2.0498C8.06348 2.0498 8.93262 2.22314 9.67969 2.56982C10.4219 2.9165 11.0005 3.39258 11.4155 3.99805C11.8257 4.6084 12.0308 5.30908 12.0308 6.1001ZM15.2388 6.03418C15.2388 6.62988 15.1509 7.16943 14.9751 7.65283C14.7993 8.13623 14.5649 8.52686 14.272 8.82471C13.979 9.12256 13.6567 9.28369 13.3052 9.30811C13.2271 9.30811 13.1489 9.30811 13.0708 9.30811C12.9878 9.31299 12.9048 9.31543 12.8218 9.31543C13.061 8.82227 13.2393 8.31445 13.3564 7.79199C13.4688 7.27441 13.5249 6.70801 13.5249 6.09277C13.5249 5.44824 13.4199 4.84277 13.21 4.27637C12.9951 3.70996 12.6875 3.19727 12.2871 2.73828C12.3994 2.73828 12.5142 2.73828 12.6313 2.73828C12.7485 2.73828 12.8633 2.73828 12.9756 2.73828C13.3906 2.76758 13.769 2.93115 14.1108 3.229C14.4526 3.52686 14.7261 3.91992 14.9312 4.4082C15.1362 4.89648 15.2388 5.43848 15.2388 6.03418Z" fill="white"/>
</svg>
