<svg width="19" height="18" viewBox="0 0 17 16" fill="none" xmlns="http://www.w3.org/2000/svg">
<path d="M0.831066 6.29834C0.303723 6.29834 0.171887 6.65723 0.457532 7.06738L2.09815 9.39648C2.33985 9.7334 2.69142 9.72607 2.92579 9.39648L4.56642 7.06006C4.84474 6.65723 4.7129 6.29834 4.19288 6.29834H3.13087C3.76808 3.52979 6.22901 1.49365 9.20265 1.49365C12.6597 1.49365 15.4282 4.25488 15.4282 7.71191C15.4282 11.1689 12.6597 13.9521 9.20265 13.9375C7.11524 13.9302 5.28419 12.9194 4.16358 11.3594C3.93653 11.0591 3.5923 10.9639 3.28468 11.147C2.99171 11.3301 2.91114 11.7329 3.16017 12.0552C4.55177 13.9229 6.73439 15.1826 9.20265 15.1826C13.2822 15.1826 16.6733 11.7915 16.6733 7.71191C16.6733 3.625 13.2822 0.241211 9.20265 0.241211C5.59913 0.241211 2.53761 2.87061 1.86378 6.29834H0.831066ZM8.92433 3.41992C8.60206 3.41992 8.33839 3.67627 8.33839 3.99854V8.08545C8.33839 8.25391 8.38966 8.40039 8.51417 8.56152L10.3232 10.9492C10.5649 11.2642 10.9019 11.3154 11.2021 11.1104C11.4731 10.9199 11.4951 10.5757 11.2754 10.2754L9.50294 7.8877V3.99854C9.50294 3.67627 9.24659 3.41992 8.92433 3.41992Z" fill="#969696"/>
</svg>
