<svg width="19" height="16" viewBox="0 0 19 16" fill="none" xmlns="http://www.w3.org/2000/svg">
<path d="M4.63232 15.787H14.542C15.582 15.787 16.1899 15.1937 16.1899 14.1684V7.12976L17.208 7.9867C17.3545 8.11121 17.5229 8.22107 17.728 8.22107C18.0723 8.22107 18.3506 8.00867 18.3506 7.65711C18.3506 7.43738 18.2773 7.2909 18.1235 7.15906L16.1899 5.53308V2.50086C16.1899 2.17859 15.9849 1.97351 15.6626 1.97351H14.8789C14.564 1.97351 14.3516 2.17859 14.3516 2.50086V3.98767L10.499 0.750366C9.95703 0.28894 9.2832 0.28894 8.73389 0.750366L1.10205 7.15906C0.940918 7.2909 0.867676 7.46668 0.867676 7.63513C0.867676 7.93543 1.10205 8.22107 1.49756 8.22107C1.70264 8.22107 1.87109 8.11121 2.0249 7.9867L2.97705 7.18103V14.1684C2.97705 15.1937 3.58496 15.787 4.63232 15.787ZM11.7222 9.70056C11.7222 9.36365 11.5024 9.14392 11.1655 9.14392H8.06006C7.71582 9.14392 7.49609 9.36365 7.49609 9.70056V14.6078H4.88135C4.4126 14.6078 4.15625 14.3441 4.15625 13.8681V6.19226L9.35645 1.83435C9.51758 1.68787 9.71533 1.68787 9.87646 1.83435L15.0107 6.14099V13.8681C15.0107 14.3441 14.7544 14.6078 14.293 14.6078H11.7222V9.70056Z" fill="#969696"/>
</svg>
