<svg width="27" height="27" viewBox="0 0 27 27" fill="none" xmlns="http://www.w3.org/2000/svg">
<path d="M25.3402 11.9931C26.018 12.6727 26.0177 13.7787 25.3393 14.4578C25.3392 14.4578 25.3392 14.4579 25.3391 14.4579C25.3391 14.458 25.3391 14.458 25.339 14.458C25.0084 14.7884 24.5727 14.9687 24.1062 14.9687H23.7142H23.0642V15.6187V23.4238C23.0642 24.6092 22.0986 25.5749 20.9127 25.5749H16.7633C16.7016 25.5749 16.6516 25.5249 16.6516 25.4631V19.344C16.6516 18.2802 15.7873 17.4159 14.7235 17.4159H12.2761C11.2123 17.4159 10.348 18.2802 10.348 19.344V25.4631C10.348 25.5248 10.298 25.5749 10.2363 25.5749H6.08694C4.90101 25.5749 3.93544 24.6092 3.93544 23.4238V15.6187V14.9687H3.28544H2.86273C2.85877 14.9687 2.85524 14.9685 2.85205 14.9682L2.83446 14.9665L2.81681 14.9657C2.3783 14.9469 1.97054 14.7679 1.66036 14.4576L1.66025 14.4575C0.982415 13.7796 0.981104 12.6753 1.65701 11.9955L1.66308 11.9893L1.6673 11.985L1.66844 11.9838L12.2668 1.38569L11.8075 0.926449L12.2668 1.38569C12.5972 1.0553 13.0329 0.874853 13.4998 0.874853C13.9666 0.874853 14.4023 1.05541 14.7325 1.38579L14.7326 1.3859L25.3399 11.9928M25.3402 11.9931L25.3403 11.9931L25.3403 11.9931L25.3403 11.9931L25.3403 11.9932L25.3403 11.9932L25.3403 11.9932L25.3403 11.9932L25.3404 11.9932L25.7982 11.5354L25.3399 11.9927C25.3399 11.9927 25.3399 11.9927 25.3399 11.9928M25.3402 11.9931L25.3402 11.9931L25.3402 11.9931M25.3402 11.9931L25.3402 11.9931M25.3399 11.9928C25.3399 11.9928 25.3399 11.9928 25.3399 11.9928M25.3399 11.9928L25.3399 11.9928M25.3399 11.9928C25.3399 11.9928 25.3399 11.9928 25.3399 11.9928L25.3399 11.9928L25.3399 11.9928ZM25.3402 11.9931C25.3402 11.9931 25.3402 11.9931 25.3402 11.9931L25.3402 11.9931ZM25.34 11.9928C25.34 11.9929 25.34 11.9929 25.34 11.9929C25.34 11.9929 25.34 11.9929 25.34 11.9929C25.3401 11.9929 25.3401 11.9929 25.3401 11.993L25.34 11.9928Z" stroke="#FEFEFE" stroke-width="1.3"/>
</svg>
