<svg  viewBox="0 0 176 191" fill="none" xmlns="http://www.w3.org/2000/svg">
<g clip-path="url(#clip0_408_2132)">
<path d="M94.3672 20.0594C100.476 36.3923 120.466 33.9344 134.032 30.4458C137.284 29.5737 140.616 28.6223 143.551 26.9572C146.486 25.2922 148.946 22.5965 149.898 19.3458C150.929 15.6986 149.739 11.655 147.676 8.4836C145.772 5.55002 142.996 2.45786 140.061 0.555001C138.792 3.80573 134.27 4.04359 131.176 4.04359C126.813 4.04359 122.846 2.37858 118.801 1.18929C114.675 -1.49012e-06 110.233 -0.237859 106.108 0.872145C97.7784 2.8543 91.1147 11.3379 94.3672 20.0594Z" fill="#0C0B0B"/>
<path d="M106.822 129.395C106.584 129.395 106.504 129.395 106.346 129.474L106.822 129.395Z" fill="#0C0B0B"/>
<path d="M106.822 129.395C106.584 129.395 106.504 129.395 106.346 129.474L106.822 129.395Z" fill="#0C0B0B"/>
<path d="M89.2109 49.8709V34.5687C89.2109 21.5658 101.348 10.9415 116.183 10.9415C123.56 10.9415 130.303 13.5579 135.222 17.8394C140.14 22.1208 143.155 27.988 143.155 34.4894V49.7916" stroke="#0C0B0B" stroke-width="2" stroke-miterlimit="10"/>
<path d="M143.155 66.4417V84.1225C143.155 97.1254 131.017 107.75 116.183 107.75C101.348 107.75 89.2109 97.1254 89.2109 84.1225V66.4417" stroke="#0C0B0B" stroke-width="2" stroke-miterlimit="10"/>
<path d="M100.159 71.9124C107.738 71.9124 113.882 65.7713 113.882 58.1959C113.882 50.6205 107.738 44.4795 100.159 44.4795C92.579 44.4795 86.4346 50.6205 86.4346 58.1959C86.4346 65.7713 92.579 71.9124 100.159 71.9124Z" stroke="#0C0B0B" stroke-width="2" stroke-miterlimit="10"/>
<path d="M132.128 71.9124C139.708 71.9124 145.852 65.7713 145.852 58.1959C145.852 50.6205 139.708 44.4795 132.128 44.4795C124.549 44.4795 118.404 50.6205 118.404 58.1959C118.404 65.7713 124.549 71.9124 132.128 71.9124Z" stroke="#0C0B0B" stroke-width="2" stroke-miterlimit="10"/>
<path d="M113.803 57.7995H118.562" stroke="#0C0B0B" stroke-width="4" stroke-miterlimit="10"/>
<path d="M127.21 105.609H127.289V130.425" stroke="#0C0B0B" stroke-width="2" stroke-miterlimit="10"/>
<path d="M107.457 130.108V106.243" stroke="#0C0B0B" stroke-width="2" stroke-miterlimit="10"/>
<path d="M100.159 61.3674C101.911 61.3674 103.332 59.9475 103.332 58.1959C103.332 56.4444 101.911 55.0245 100.159 55.0245C98.406 55.0245 96.9854 56.4444 96.9854 58.1959C96.9854 59.9475 98.406 61.3674 100.159 61.3674Z" fill="#0C0B0B"/>
<path d="M132.128 61.3674C133.881 61.3674 135.301 59.9475 135.301 58.1959C135.301 56.4444 133.881 55.0245 132.128 55.0245C130.376 55.0245 128.955 56.4444 128.955 58.1959C128.955 59.9475 130.376 61.3674 132.128 61.3674Z" fill="#0C0B0B"/>
<path d="M87.386 63.3495H85.7995C84.0542 63.3495 82.4676 64.0631 81.2777 65.1731C80.1671 66.3624 79.4531 67.9481 79.4531 69.6924C79.4531 73.181 82.309 76.0353 85.7995 76.0353H88.9726" stroke="#0C0B0B" stroke-width="2" stroke-miterlimit="10"/>
<path d="M144.9 63.3495H146.487C149.977 63.3495 152.833 66.2038 152.833 69.6924C152.833 71.4367 152.119 73.0224 150.929 74.2117C149.818 75.3217 148.232 76.0353 146.487 76.0353H143.313" stroke="#0C0B0B" stroke-width="2" stroke-miterlimit="10"/>
<path d="M89.0528 67.7895V71.5953H86.5142C85.483 71.5953 84.6104 70.7231 84.6104 69.6924C84.6104 69.1374 84.8483 68.6617 85.1657 68.3445C85.483 68.0274 85.9589 67.7895 86.5142 67.7895H89.0528Z" fill="#0C0B0B"/>
<path d="M143.313 71.5953V67.7895H145.852C146.883 67.7895 147.756 68.6617 147.756 69.6924C147.756 70.2474 147.518 70.7231 147.201 71.0403C146.883 71.3574 146.407 71.5953 145.852 71.5953H143.313Z" fill="#0C0B0B"/>
<path d="M116.183 71.2781C116.183 71.2781 112.217 77.621 118.563 76.0353" stroke="#0C0B0B" stroke-width="2" stroke-miterlimit="10" stroke-linecap="round"/>
<path d="M109.043 89.5932C109.043 89.5932 115.389 97.4425 124.115 89.5932" stroke="#0C0B0B" stroke-width="2" stroke-miterlimit="10" stroke-linecap="round"/>
<path d="M93.9707 41.9423C93.9707 41.9423 98.3338 37.5816 105.87 41.1494" stroke="#0C0B0B" stroke-width="3" stroke-miterlimit="10" stroke-linecap="round"/>
<path d="M138.395 41.9423C138.395 41.9423 134.032 37.5816 126.496 41.1494" stroke="#0C0B0B" stroke-width="3" stroke-miterlimit="10" stroke-linecap="round"/>
<path d="M89.0527 32.9037C89.0527 32.9037 78.1053 24.4201 82.8651 14.1129C87.6248 3.80573 102.697 9.35575 102.697 9.35575C102.697 9.35575 108.726 35.0444 89.0527 32.9037Z" fill="#0C0B0B"/>
<path d="M34.6321 96.2539C33.6802 93.1617 32.3316 91.6553 31.6176 87.136C30.1104 78.0974 30.6657 69.4552 26.9372 69.7723C25.43 69.9309 24.954 71.5166 25.0333 72.3888L26.2233 86.6602C25.7473 88.3253 24.8747 87.691 24.8747 87.691C24.8747 87.691 21.7808 75.0052 21.3842 72.7059C20.9875 70.4859 19.8769 69.2173 18.3697 69.3759C15.7518 69.6137 16.7831 72.7852 17.0211 73.9745L19.7976 89.356C20.0356 90.8624 18.449 90.3867 18.449 90.3867L12.2613 75.0052C11.5474 73.3402 10.1988 73.7366 10.1988 73.7366C7.73958 74.2916 8.69153 76.5116 8.69153 76.5116L14.0066 92.8446C14.0066 92.9238 14.0066 93.0031 14.0066 93.0824C14.0859 93.9546 12.9753 94.4303 12.4993 93.6374C10.8334 91.1003 7.58092 87.0567 4.88373 85.471C3.53514 84.6781 2.58319 84.8367 2.02788 85.2331C1.47258 85.6295 1.39325 86.3431 1.7899 86.8981L11.706 101.249C14.0066 116.472 23.2881 118.295 23.2881 118.295L28.8411 140.02L37.012 174.271L38.0433 178.632C38.9952 182.834 42.803 185.847 47.0868 185.847H51.4499C54.5437 185.847 56.6856 182.834 55.7337 179.98L35.9807 119.881L35.1081 114.648C37.012 112.507 38.2813 107.988 38.9159 104.737C39.3126 102.993 39.4712 101.17 39.3126 99.4253C38.9952 95.0646 41.9304 87.2152 41.9304 87.2152C41.6924 85.7088 38.8366 86.9774 38.8366 86.9774C35.6634 88.0874 34.8701 93.1617 34.6321 95.9367C34.5528 97.126 33.9975 98.1567 33.2042 98.9496C28.4445 103.627 28.0478 108.86 28.0478 108.86" stroke="#0C0B0B" stroke-width="2" stroke-miterlimit="10"/>
<path d="M21.3049 72.7846C20.9082 70.5646 20.1942 68.8995 18.2903 69.4545C15.7518 70.1681 16.7038 72.8638 16.9418 74.0531" stroke="#0C0B0B" stroke-width="2" stroke-miterlimit="10"/>
<path d="M175.68 190.207V191H158.386L154.737 170.782V191H79.8505V179.504C79.8505 176.729 79.8505 173.954 79.9298 171.179C78.2639 172.526 76.4393 173.636 74.2975 174.826L57.7177 185.926C57.6383 186.005 57.559 186.005 57.4797 186.084C56.7657 186.481 55.9724 186.719 55.0998 186.719L51.652 186.849C51.652 186.849 55.3378 185.45 56.2104 181.961L50.2607 162.14C58.749 155.083 72.4729 134.707 98.8102 130.505C99.9208 130.267 101.111 130.029 102.38 129.87C103.57 129.712 104.76 129.553 106.108 129.474L106.981 129.395V129.553L106.505 129.633C106.664 129.633 106.743 129.633 106.902 129.553H106.981C107.14 129.553 107.298 129.553 107.457 129.474H107.536L108.33 129.395V132.408C108.33 132.804 108.488 133.28 108.885 133.676C110.075 135.024 112.772 136.055 116.025 136.293C116.58 136.372 117.135 136.372 117.69 136.372C117.77 136.372 117.849 136.372 117.849 136.372H117.928C121.102 136.293 124.037 135.421 125.544 134.152C126.02 133.756 126.496 133.201 126.496 132.408V129.633L127.289 129.791H127.448C127.686 129.791 127.845 129.87 128.083 129.87V129.633L129.114 129.791C158.228 133.359 175.68 155.956 175.68 190.207Z" fill="#0C0B0B"/>
<path d="M57.6384 185.846L57.4004 186.005C57.4797 186.005 57.559 185.926 57.6384 185.846Z" fill="#0C0B0B"/>
</g>
<defs>
<clipPath id="clip0_408_2132">
<rect width="100%" height="100%" fill="white" transform="translate(0.679688)"/>
</clipPath>
</defs>
</svg>
