<svg width="14" height="14" viewBox="0 0 14 14" fill="none" xmlns="http://www.w3.org/2000/svg">
<path d="M10.1687 4.39748C10.6028 4.39748 10.9548 4.04826 10.9548 3.61748C10.9548 3.1867 10.6028 2.83748 10.1687 2.83748C9.73453 2.83748 9.38257 3.1867 9.38257 3.61748C9.38257 4.04826 9.73453 4.39748 10.1687 4.39748Z" fill="white"/>
<path fill-rule="evenodd" clip-rule="evenodd" d="M3.49878 6.95523C3.49878 8.74761 4.96784 10.2052 6.77427 10.2052C8.5807 10.2052 10.0498 8.74761 10.0498 6.95523C10.0498 5.16286 8.5807 3.70523 6.77427 3.70523C4.96784 3.70523 3.49878 5.16286 3.49878 6.95523ZM5.13665 6.95523C5.13665 6.05904 5.87118 5.33023 6.7744 5.33023C7.67762 5.33023 8.41215 6.05904 8.41215 6.95523C8.41215 7.85142 7.67762 8.58023 6.7744 8.58023C5.87118 8.58023 5.13665 7.85142 5.13665 6.95523Z" fill="white"/>
<path fill-rule="evenodd" clip-rule="evenodd" d="M3.49888 13.4552H10.0499C11.7335 13.4552 13.3254 11.8757 13.3254 10.2052V3.70523C13.3254 2.03473 11.7335 0.455231 10.0499 0.455231H3.49888C1.81528 0.455231 0.223389 2.03473 0.223389 3.70523V10.2052C0.223389 11.8757 1.81528 13.4552 3.49888 13.4552ZM1.86111 3.70523C1.86111 2.94554 2.73321 2.08023 3.49885 2.08023H10.0498C10.8155 2.08023 11.6876 2.94554 11.6876 3.70523V10.2052C11.6876 10.9649 10.8155 11.8302 10.0498 11.8302H3.49885C2.71847 11.8302 1.86111 10.9795 1.86111 10.2052V3.70523Z" fill="white"/>
</svg>
