<svg width="15" height="17" viewBox="0 0 15 17" fill="none" xmlns="http://www.w3.org/2000/svg">
<path d="M0.428223 12.623C0.428223 12.9648 0.54541 13.2407 0.779785 13.4507C1.01416 13.6558 1.33398 13.7583 1.73926 13.7583H4.69824C4.71777 14.2271 4.85205 14.6665 5.10107 15.0767C5.35498 15.4917 5.70166 15.8286 6.14111 16.0874C6.58545 16.3462 7.0957 16.4756 7.67188 16.4756C8.25781 16.4756 8.77051 16.3462 9.20996 16.0874C9.6543 15.8335 10.001 15.499 10.25 15.084C10.5039 14.6689 10.6406 14.2271 10.6602 13.7583H13.6191C14.0244 13.7583 14.3442 13.6558 14.5786 13.4507C14.813 13.2407 14.9302 12.9648 14.9302 12.623C14.9302 12.3496 14.8618 12.0933 14.7251 11.854C14.5933 11.6099 14.4224 11.3779 14.2124 11.1582C14.0024 10.9336 13.7852 10.7139 13.5605 10.499C13.3799 10.333 13.2383 10.1182 13.1357 9.85449C13.0381 9.58594 12.9624 9.28564 12.9087 8.95361C12.8599 8.6167 12.8159 8.25781 12.7769 7.87695C12.7329 6.97852 12.6035 6.18018 12.3887 5.48193C12.1787 4.78369 11.8687 4.19775 11.4585 3.72412C11.0532 3.24561 10.5356 2.8916 9.90576 2.66211C9.75928 2.16895 9.48828 1.76123 9.09277 1.43896C8.69727 1.11182 8.22363 0.948242 7.67188 0.948242C7.12988 0.948242 6.66113 1.11182 6.26562 1.43896C5.87012 1.76123 5.59912 2.16895 5.45264 2.66211C4.81787 2.8916 4.29541 3.24561 3.88525 3.72412C3.47998 4.19775 3.17236 4.78369 2.9624 5.48193C2.75244 6.18018 2.62549 6.97852 2.58154 7.87695C2.54248 8.25781 2.49609 8.6167 2.44238 8.95361C2.39355 9.28564 2.31787 9.58594 2.21533 9.85449C2.11768 10.1182 1.97852 10.333 1.79785 10.499C1.57324 10.7139 1.35596 10.9336 1.146 11.1582C0.936035 11.3779 0.762695 11.6099 0.625977 11.854C0.494141 12.0933 0.428223 12.3496 0.428223 12.623ZM2.42041 12.2422V12.1616C2.49854 12.0933 2.59131 12.0103 2.69873 11.9126C2.81104 11.8101 2.92822 11.6978 3.05029 11.5757C3.17725 11.4536 3.29688 11.3242 3.40918 11.1875C3.53125 11.0459 3.63623 10.8701 3.72412 10.6602C3.81689 10.4502 3.89502 10.2134 3.9585 9.94971C4.02686 9.68604 4.08057 9.40039 4.11963 9.09277C4.15869 8.78516 4.18799 8.46045 4.20752 8.11865C4.2417 7.18604 4.354 6.44141 4.54443 5.88477C4.73975 5.32324 4.98877 4.90088 5.2915 4.61768C5.59912 4.33447 5.94336 4.1416 6.32422 4.03906C6.41211 4.01953 6.48047 3.98535 6.5293 3.93652C6.57813 3.8877 6.60742 3.80957 6.61719 3.70215C6.6416 3.34082 6.74658 3.05029 6.93213 2.83057C7.11768 2.61084 7.36426 2.50098 7.67188 2.50098C7.98438 2.50098 8.2334 2.61084 8.41895 2.83057C8.60938 3.05029 8.7168 3.34082 8.74121 3.70215C8.74609 3.80957 8.77295 3.8877 8.82178 3.93652C8.87549 3.98535 8.94629 4.01953 9.03418 4.03906C9.41016 4.1416 9.74951 4.33447 10.0522 4.61768C10.3599 4.90088 10.6113 5.32324 10.8066 5.88477C11.002 6.44141 11.1143 7.18604 11.1436 8.11865C11.1631 8.46045 11.1948 8.78516 11.2388 9.09277C11.2827 9.40039 11.334 9.68604 11.3926 9.94971C11.4561 10.2134 11.5342 10.4502 11.627 10.6602C11.7197 10.8701 11.8247 11.0459 11.9419 11.1875C12.0591 11.3242 12.1763 11.4536 12.2935 11.5757C12.4155 11.6978 12.5278 11.8101 12.6304 11.9126C12.7378 12.0103 12.8306 12.0933 12.9087 12.1616V12.2422H2.42041ZM6.2583 13.7583H9.1001C9.0708 14.1929 8.92432 14.5396 8.66064 14.7983C8.40186 15.0571 8.07227 15.1865 7.67188 15.1865C7.28125 15.1865 6.9541 15.0571 6.69043 14.7983C6.42676 14.5396 6.28271 14.1929 6.2583 13.7583Z" fill="white"/>
</svg>
