<svg width="17" height="17" viewBox="0 0 17 17" fill="none" xmlns="http://www.w3.org/2000/svg">
<path d="M0.311035 11.4658C0.311035 12.1152 0.40625 12.7231 0.59668 13.2896C0.791992 13.856 1.06299 14.354 1.40967 14.7837C1.75635 15.2183 2.16162 15.5576 2.62549 15.8018C3.09424 16.0508 3.60205 16.1753 4.14893 16.1753H6.5C6.9834 16.4146 7.5083 16.6001 8.07471 16.7319C8.64111 16.8687 9.23682 16.937 9.86182 16.937H10.8726C11.3462 16.937 11.7783 16.9224 12.1689 16.8931C12.5596 16.8638 12.8867 16.8149 13.1504 16.7466C13.6973 16.6147 14.1318 16.3633 14.4541 15.9922C14.7812 15.6211 14.9448 15.1938 14.9448 14.7104C14.9448 14.6323 14.9375 14.5566 14.9229 14.4834C14.9131 14.4102 14.8984 14.3369 14.8789 14.2637C15.3867 13.8486 15.6406 13.3164 15.6406 12.667C15.6406 12.3838 15.5918 12.125 15.4941 11.8906C15.6602 11.7051 15.7847 11.4927 15.8677 11.2534C15.9556 11.0093 15.9995 10.7529 15.9995 10.4844C15.9995 10.3135 15.98 10.145 15.9409 9.979C15.9067 9.81299 15.8555 9.66162 15.7871 9.5249C15.9922 9.19287 16.0947 8.79492 16.0947 8.33105C16.0947 7.93555 16.002 7.5791 15.8164 7.26172C15.6357 6.94434 15.3892 6.69287 15.0767 6.50732C14.7642 6.32178 14.4102 6.229 14.0146 6.229H11.3926C11.3291 6.229 11.2754 6.21436 11.2314 6.18506C11.1924 6.15576 11.1753 6.10938 11.1802 6.0459C11.1997 5.87012 11.2681 5.63818 11.3853 5.3501C11.5073 5.05713 11.644 4.73242 11.7954 4.37598C11.9468 4.01465 12.0786 3.64355 12.1909 3.2627C12.3081 2.88184 12.3667 2.51074 12.3667 2.14941C12.3667 1.76855 12.2837 1.43408 12.1177 1.146C11.9565 0.853027 11.7344 0.623535 11.4512 0.45752C11.168 0.286621 10.8433 0.201172 10.4771 0.201172C10.0864 0.201172 9.74463 0.311035 9.45166 0.530762C9.15869 0.750488 8.88525 1.10205 8.63135 1.58545C8.40674 2.01514 8.16748 2.43994 7.91357 2.85986C7.65967 3.2749 7.38623 3.68994 7.09326 4.10498C6.80518 4.52002 6.49512 4.94482 6.16309 5.37939C5.83594 5.80908 5.48193 6.2583 5.10107 6.72705H3.87793C3.19434 6.72705 2.58154 6.93945 2.03955 7.36426C1.50244 7.78906 1.08008 8.36035 0.772461 9.07812C0.464844 9.79102 0.311035 10.5869 0.311035 11.4658ZM4.96924 11.3999C4.96924 10.897 5.0083 10.4453 5.08643 10.0449C5.16943 9.63965 5.30615 9.24658 5.49658 8.86572C5.68701 8.48486 5.94336 8.07959 6.26562 7.6499C6.62695 7.16162 7.02246 6.6416 7.45215 6.08984C7.88672 5.53809 8.31885 4.94727 8.74854 4.31738C9.18311 3.68262 9.57861 3.00391 9.93506 2.28125C10.0376 2.08105 10.1279 1.94922 10.2061 1.88574C10.2842 1.82227 10.3745 1.79053 10.4771 1.79053C10.5991 1.79053 10.6968 1.83447 10.77 1.92236C10.8433 2.00537 10.8799 2.12256 10.8799 2.27393C10.8799 2.51807 10.8188 2.80615 10.6968 3.13818C10.5747 3.47021 10.4331 3.81689 10.272 4.17822C10.1157 4.53955 9.97656 4.89844 9.85449 5.25488C9.7373 5.60645 9.67871 5.93115 9.67871 6.229C9.67871 6.67822 9.8374 7.03955 10.1548 7.31299C10.4771 7.58154 10.8848 7.71582 11.3779 7.71582H13.9634C14.144 7.71582 14.2979 7.7793 14.4248 7.90625C14.5518 8.02832 14.6152 8.18213 14.6152 8.36768C14.6152 8.49951 14.5908 8.6167 14.542 8.71924C14.4932 8.81689 14.415 8.92188 14.3076 9.03418C14.1904 9.14648 14.1245 9.28076 14.1099 9.43701C14.1001 9.59326 14.1465 9.7251 14.249 9.83252C14.3418 9.96436 14.4077 10.0791 14.4468 10.1768C14.4907 10.2695 14.5127 10.3721 14.5127 10.4844C14.5127 10.6162 14.481 10.7383 14.4175 10.8506C14.354 10.9629 14.2563 11.0679 14.1245 11.1655C13.9829 11.2681 13.8901 11.3999 13.8462 11.561C13.8071 11.7222 13.8267 11.8857 13.9048 12.0518C13.978 12.1836 14.0317 12.2935 14.0659 12.3813C14.1001 12.4644 14.1172 12.5547 14.1172 12.6523C14.1172 12.9502 13.9146 13.2065 13.5093 13.4214C13.3726 13.5044 13.2847 13.6167 13.2456 13.7583C13.2065 13.895 13.2139 14.0317 13.2676 14.1685C13.3359 14.3345 13.3774 14.4468 13.3921 14.5054C13.4116 14.564 13.4214 14.6299 13.4214 14.7031C13.4214 14.8398 13.3677 14.9595 13.2603 15.062C13.1577 15.1694 12.9941 15.2524 12.7695 15.311C12.5645 15.3599 12.291 15.3965 11.9492 15.4209C11.6123 15.4453 11.2119 15.4575 10.748 15.4575L9.92773 15.4502C8.93652 15.4502 8.06738 15.2769 7.32031 14.9302C6.57813 14.5835 5.99951 14.1074 5.58447 13.502C5.17432 12.8916 4.96924 12.1909 4.96924 11.3999ZM1.76123 11.4658C1.76123 10.8701 1.84912 10.3306 2.0249 9.84717C2.20068 9.36377 2.43506 8.97314 2.72803 8.67529C3.021 8.37744 3.34326 8.21631 3.69482 8.19189C3.77295 8.19189 3.85107 8.19189 3.9292 8.19189C4.01221 8.18701 4.09521 8.18457 4.17822 8.18457C3.93896 8.67773 3.76074 9.18555 3.64355 9.70801C3.53125 10.2256 3.4751 10.792 3.4751 11.4072C3.4751 12.0518 3.58008 12.6572 3.79004 13.2236C4.00488 13.79 4.3125 14.3027 4.71289 14.7617C4.60059 14.7617 4.48584 14.7617 4.36865 14.7617C4.25146 14.7617 4.13672 14.7617 4.02441 14.7617C3.60938 14.7324 3.23096 14.5688 2.88916 14.271C2.54736 13.9731 2.27393 13.5801 2.06885 13.0918C1.86377 12.6035 1.76123 12.0615 1.76123 11.4658Z" fill="white"/>
</svg>
