<svg width="19" height="17" viewBox="0 0 17 18" fill="none" xmlns="http://www.w3.org/2000/svg">
<path d="M0.311035 11.9658C0.311035 12.6152 0.40625 13.2231 0.59668 13.7896C0.791992 14.356 1.06299 14.854 1.40967 15.2837C1.75635 15.7183 2.16162 16.0576 2.62549 16.3018C3.09424 16.5508 3.60205 16.6753 4.14893 16.6753H6.5C6.9834 16.9146 7.5083 17.1001 8.07471 17.2319C8.64111 17.3687 9.23682 17.437 9.86182 17.437H10.8726C11.3462 17.437 11.7783 17.4224 12.1689 17.3931C12.5596 17.3638 12.8867 17.3149 13.1504 17.2466C13.6973 17.1147 14.1318 16.8633 14.4541 16.4922C14.7812 16.1211 14.9448 15.6938 14.9448 15.2104C14.9448 15.1323 14.9375 15.0566 14.9229 14.9834C14.9131 14.9102 14.8984 14.8369 14.8789 14.7637C15.3867 14.3486 15.6406 13.8164 15.6406 13.167C15.6406 12.8838 15.5918 12.625 15.4941 12.3906C15.6602 12.2051 15.7847 11.9927 15.8677 11.7534C15.9556 11.5093 15.9995 11.2529 15.9995 10.9844C15.9995 10.8135 15.98 10.645 15.9409 10.479C15.9067 10.313 15.8555 10.1616 15.7871 10.0249C15.9922 9.69287 16.0947 9.29492 16.0947 8.83105C16.0947 8.43555 16.002 8.0791 15.8164 7.76172C15.6357 7.44434 15.3892 7.19287 15.0767 7.00732C14.7642 6.82178 14.4102 6.729 14.0146 6.729H11.3926C11.3291 6.729 11.2754 6.71436 11.2314 6.68506C11.1924 6.65576 11.1753 6.60938 11.1802 6.5459C11.1997 6.37012 11.2681 6.13818 11.3853 5.8501C11.5073 5.55713 11.644 5.23242 11.7954 4.87598C11.9468 4.51465 12.0786 4.14355 12.1909 3.7627C12.3081 3.38184 12.3667 3.01074 12.3667 2.64941C12.3667 2.26855 12.2837 1.93408 12.1177 1.646C11.9565 1.35303 11.7344 1.12353 11.4512 0.95752C11.168 0.786621 10.8433 0.701172 10.4771 0.701172C10.0864 0.701172 9.74463 0.811035 9.45166 1.03076C9.15869 1.25049 8.88525 1.60205 8.63135 2.08545C8.40674 2.51514 8.16748 2.93994 7.91357 3.35986C7.65967 3.7749 7.38623 4.18994 7.09326 4.60498C6.80518 5.02002 6.49512 5.44482 6.16309 5.87939C5.83594 6.30908 5.48193 6.7583 5.10107 7.22705H3.87793C3.19434 7.22705 2.58154 7.43945 2.03955 7.86426C1.50244 8.28906 1.08008 8.86035 0.772461 9.57812C0.464844 10.291 0.311035 11.0869 0.311035 11.9658ZM4.96924 11.8999C4.96924 11.397 5.0083 10.9453 5.08643 10.5449C5.16943 10.1397 5.30615 9.74658 5.49658 9.36572C5.68701 8.98486 5.94336 8.57959 6.26562 8.1499C6.62695 7.66162 7.02246 7.1416 7.45215 6.58984C7.88672 6.03809 8.31885 5.44727 8.74854 4.81738C9.18311 4.18262 9.57861 3.50391 9.93506 2.78125C10.0376 2.58105 10.1279 2.44922 10.2061 2.38574C10.2842 2.32227 10.3745 2.29053 10.4771 2.29053C10.5991 2.29053 10.6968 2.33447 10.77 2.42236C10.8433 2.50537 10.8799 2.62256 10.8799 2.77393C10.8799 3.01807 10.8188 3.30615 10.6968 3.63818C10.5747 3.97021 10.4331 4.31689 10.272 4.67822C10.1157 5.03955 9.97656 5.39844 9.85449 5.75488C9.7373 6.10645 9.67871 6.43115 9.67871 6.729C9.67871 7.17822 9.8374 7.53955 10.1548 7.81299C10.4771 8.08154 10.8848 8.21582 11.3779 8.21582H13.9634C14.144 8.21582 14.2979 8.2793 14.4248 8.40625C14.5518 8.52832 14.6152 8.68213 14.6152 8.86768C14.6152 8.99951 14.5908 9.1167 14.542 9.21924C14.4932 9.31689 14.415 9.42188 14.3076 9.53418C14.1904 9.64648 14.1245 9.78076 14.1099 9.93701C14.1001 10.0933 14.1465 10.2251 14.249 10.3325C14.3418 10.4644 14.4077 10.5791 14.4468 10.6768C14.4907 10.7695 14.5127 10.8721 14.5127 10.9844C14.5127 11.1162 14.481 11.2383 14.4175 11.3506C14.354 11.4629 14.2563 11.5679 14.1245 11.6655C13.9829 11.7681 13.8901 11.8999 13.8462 12.061C13.8071 12.2222 13.8267 12.3857 13.9048 12.5518C13.978 12.6836 14.0317 12.7935 14.0659 12.8813C14.1001 12.9644 14.1172 13.0547 14.1172 13.1523C14.1172 13.4502 13.9146 13.7065 13.5093 13.9214C13.3726 14.0044 13.2847 14.1167 13.2456 14.2583C13.2065 14.395 13.2139 14.5317 13.2676 14.6685C13.3359 14.8345 13.3774 14.9468 13.3921 15.0054C13.4116 15.064 13.4214 15.1299 13.4214 15.2031C13.4214 15.3398 13.3677 15.4595 13.2603 15.562C13.1577 15.6694 12.9941 15.7524 12.7695 15.811C12.5645 15.8599 12.291 15.8965 11.9492 15.9209C11.6123 15.9453 11.2119 15.9575 10.748 15.9575L9.92773 15.9502C8.93652 15.9502 8.06738 15.7769 7.32031 15.4302C6.57813 15.0835 5.99951 14.6074 5.58447 14.002C5.17432 13.3916 4.96924 12.6909 4.96924 11.8999ZM1.76123 11.9658C1.76123 11.3701 1.84912 10.8306 2.0249 10.3472C2.20068 9.86377 2.43506 9.47314 2.72803 9.17529C3.021 8.87744 3.34326 8.71631 3.69482 8.69189C3.77295 8.69189 3.85107 8.69189 3.9292 8.69189C4.01221 8.68701 4.09521 8.68457 4.17822 8.68457C3.93896 9.17773 3.76074 9.68555 3.64355 10.208C3.53125 10.7256 3.4751 11.292 3.4751 11.9072C3.4751 12.5518 3.58008 13.1572 3.79004 13.7236C4.00488 14.29 4.3125 14.8027 4.71289 15.2617C4.60059 15.2617 4.48584 15.2617 4.36865 15.2617C4.25146 15.2617 4.13672 15.2617 4.02441 15.2617C3.60938 15.2324 3.23096 15.0688 2.88916 14.771C2.54736 14.4731 2.27393 14.0801 2.06885 13.5918C1.86377 13.1035 1.76123 12.5615 1.76123 11.9658Z" fill="#969696"/>
</svg>
