<svg width="14" height="14" viewBox="0 0 14 14" fill="none" xmlns="http://www.w3.org/2000/svg">
<path d="M1.82622 3.83023C2.76551 3.83023 3.52696 3.07471 3.52696 2.14273C3.52696 1.21075 2.76551 0.455231 1.82622 0.455231C0.886933 0.455231 0.125488 1.21075 0.125488 2.14273C0.125488 3.07471 0.886933 3.83023 1.82622 3.83023Z" fill="white"/>
<path d="M3.2435 4.95523H0.408944C0.252477 4.95523 0.125488 5.08123 0.125488 5.23648V13.674C0.125488 13.8292 0.252477 13.9552 0.408944 13.9552H3.2435C3.39997 13.9552 3.52696 13.8292 3.52696 13.674V5.23648C3.52696 5.08123 3.39997 4.95523 3.2435 4.95523Z" fill="white"/>
<path d="M11.6887 4.56767C10.4772 4.15592 8.9618 4.51761 8.05304 5.16617C8.02186 5.04523 7.91075 4.95523 7.77866 4.95523H4.9441C4.78763 4.95523 4.66064 5.08123 4.66064 5.23648V13.674C4.66064 13.8292 4.78763 13.9552 4.9441 13.9552H7.77866C7.93513 13.9552 8.06212 13.8292 8.06212 13.674V7.61023C8.52018 7.21873 9.11034 7.09386 9.59334 7.29748C10.0616 7.4938 10.3298 7.97305 10.3298 8.61148V13.674C10.3298 13.8292 10.4568 13.9552 10.6132 13.9552H13.4478C13.6042 13.9552 13.7312 13.8292 13.7312 13.674V8.04505C13.6989 5.73373 12.6031 4.87817 11.6887 4.56767Z" fill="white"/>
</svg>
