<svg width="48" height="26" viewBox="0 0 48 26" fill="none" xmlns="http://www.w3.org/2000/svg">
<path d="M0.728 26V0.799998H13.868V5.12H5.66V11.42H12.788V15.596H5.66V26H0.728ZM21.2427 0.799998V26H16.4907V0.799998H21.2427ZM25.0505 26V7.604H29.8025V26H25.0505ZM25.0505 0.799998H29.8025V5.66H25.0505V0.799998ZM39.6943 14.444L41.9263 7.604H46.9303L43.5103 16.568L47.0743 26H42.1423L39.6583 18.872H39.5143L37.1383 26H32.2063L35.7703 16.568L32.3503 7.604H37.2823L39.5503 14.444H39.6943Z" fill="url(#paint0_linear_10_333)"/>
<defs>
<linearGradient id="paint0_linear_10_333" x1="59.8788" y1="7.19355" x2="22.9334" y2="35.254" gradientUnits="userSpaceOnUse">
<stop stopColor="#472078"/>
<stop offset="1" stopColor="#F6416C"/>
</linearGradient>
</defs>
</svg>
