<svg width="47" height="65" viewBox="0 0 47 65" fill="none" xmlns="http://www.w3.org/2000/svg">
<path d="M0.234133 54.3216C0.138976 54.3714 0.0793457 54.4698 0.0793457 54.577V61.9234C0.0793457 62.0426 0.152932 62.1498 0.264582 62.1924L6.09141 64.4186C6.18094 64.4529 6.28118 64.4402 6.35948 64.3853L29.085 48.4556C29.2736 48.3237 29.2385 48.0344 29.0239 47.9512L19.6339 44.3111C19.5565 44.2814 19.4698 44.2861 19.3962 44.3246L0.234133 54.3216Z" fill="white"/>
<path d="M16.4859 39.2396C16.4859 39.3467 16.4263 39.4453 16.3311 39.4948L0.490073 47.7576C0.29831 47.8575 0.0688477 47.7183 0.0688477 47.5019V3.24794C0.0688477 3.13264 0.137542 3.02844 0.243573 2.98309L5.76119 0.623019C5.8529 0.58376 5.95839 0.594853 6.04031 0.652363L16.3638 7.92286C16.4406 7.97669 16.4859 8.0646 16.4859 8.15831V39.2396Z" fill="white"/>
<path d="M22.6125 12.3234C22.4217 12.1891 22.1587 12.3256 22.1587 12.5591V38.9695C22.1587 39.0886 22.2316 39.1952 22.3427 39.2383L35.034 44.1636C35.1237 44.1984 35.2248 44.1861 35.3038 44.1306L46.465 36.2823C46.5419 36.2285 46.5876 36.1406 46.5876 36.0467V29.3582C46.5876 29.2643 46.5419 29.1764 46.4654 29.1226L22.6125 12.3234Z" fill="white"/>
</svg>
