<svg width="27" height="27" viewBox="0 0 27 27" fill="none" xmlns="http://www.w3.org/2000/svg">
<path d="M18.854 20.4405V22.48C18.854 24.7292 17.0242 26.559 14.7749 26.559H4.52631C2.27706 26.559 0.447266 24.7292 0.447266 22.48V4.53217C0.447266 2.28292 2.27706 0.453125 4.52631 0.453125H14.7749C17.0242 0.453125 18.854 2.28292 18.854 4.53217V6.5717C18.854 7.13496 18.3975 7.59146 17.8342 7.59146C17.2709 7.59146 16.8144 7.13496 16.8144 6.5717V4.53217C16.8144 3.40765 15.8994 2.49265 14.7749 2.49265H4.52631C3.40179 2.49265 2.48679 3.40765 2.48679 4.53217V22.48C2.48679 23.6045 3.40179 24.5195 4.52631 24.5195H14.7749C15.8994 24.5195 16.8144 23.6045 16.8144 22.48V20.4405C16.8144 19.8772 17.2709 19.4207 17.8342 19.4207C18.3975 19.4207 18.854 19.8772 18.854 20.4405ZM25.8065 11.7544L23.523 9.47085C23.1246 9.0725 22.4789 9.0725 22.0808 9.47085C21.6824 9.86899 21.6824 10.5147 22.0808 10.9129L23.705 12.5373H11.4607C10.8974 12.5373 10.4409 12.9938 10.4409 13.5571C10.4409 14.1203 10.8974 14.5768 11.4607 14.5768H23.705L22.0808 16.2013C21.6824 16.5994 21.6824 17.2451 22.0808 17.6433C22.2799 17.8425 22.5408 17.942 22.8018 17.942C23.0629 17.942 23.3238 17.8425 23.523 17.6433L25.8065 15.3598C26.8005 14.3657 26.8005 12.7484 25.8065 11.7544Z" fill="white"/>
</svg>
