<svg width="12" height="18" viewBox="0 0 12 18" fill="none" xmlns="http://www.w3.org/2000/svg">
<path d="M5.92969 11.0859C7.51563 11.0859 8.67188 9.90629 8.67188 8.17188V2.91407C8.67188 1.1875 7.51563 0 5.92969 0C4.34375 0 3.1875 1.1875 3.1875 2.91407V8.17188C3.1875 9.90629 4.34375 11.0859 5.92969 11.0859ZM0 8.35157C0 11.5625 2.13281 13.7656 5.21875 14.0625V15.6641H2.34375C1.94531 15.6641 1.60938 15.9922 1.60938 16.3985C1.60938 16.7969 1.94531 17.125 2.34375 17.125H9.51559C9.92189 17.125 10.2578 16.7969 10.2578 16.3985C10.2578 15.9922 9.92189 15.6641 9.51559 15.6641H6.64844V14.0625C9.72659 13.7656 11.8672 11.5625 11.8672 8.35157V6.80469C11.8672 6.39844 11.5391 6.07813 11.1328 6.07813C10.7266 6.07813 10.3906 6.39844 10.3906 6.80469V8.29688C10.3906 10.9531 8.59375 12.7109 5.92969 12.7109C3.26563 12.7109 1.46875 10.9531 1.46875 8.29688V6.80469C1.46875 6.39844 1.14063 6.07813 0.734378 6.07813C0.328126 6.07813 0 6.39844 0 6.80469V8.35157Z" fill="url(#paint0_linear_14_326)"/>
<defs>
<linearGradient id="paint0_linear_14_326" x1="5.93359" y1="0" x2="5.93359" y2="17.125" gradientUnits="userSpaceOnUse">
<stop stopColor="#424242"/>
<stop offset="1"/>
</linearGradient>
</defs>
</svg>
