<svg viewBox="0 0 376 157" fill="none" xmlns="http://www.w3.org/2000/svg">
<path d="M256.027 125.129V102.999L321.473 0H340V31.5073H328.703L284.646 101.048V102.249H375.999V125.129H256.027ZM329.607 153.636V118.378L329.908 108.475V0H356.267V153.636H329.607Z" fill="#fff"/>
<path d="M188.489 157C176.321 157 165.877 153.907 157.157 147.721C148.487 141.486 141.811 132.504 137.131 120.775C132.501 108.997 130.185 94.8186 130.185 78.2402C130.234 61.6618 132.574 47.5578 137.205 35.9281C141.885 24.249 148.561 15.3412 157.231 9.20473C165.951 3.06824 176.37 0 188.489 0C200.608 0 211.027 3.06824 219.747 9.20473C228.467 15.3412 235.142 24.249 239.773 35.9281C244.453 47.6073 246.793 61.7113 246.793 78.2402C246.793 94.8681 244.453 109.071 239.773 120.849C235.142 132.578 228.467 141.535 219.747 147.721C211.077 153.907 200.657 157 188.489 157ZM188.489 133.765C197.948 133.765 205.411 129.089 210.879 119.736C216.397 110.333 219.156 96.5012 219.156 78.2402C219.156 66.1652 217.9 56.0202 215.387 47.8052C212.875 39.5902 209.328 33.4043 204.746 29.2473C200.165 25.0408 194.746 22.9376 188.489 22.9376C179.08 22.9376 171.641 27.6389 166.172 37.0416C160.704 46.3948 157.945 60.1277 157.896 78.2402C157.847 90.3647 159.054 100.559 161.517 108.824C164.029 117.088 167.576 123.324 172.158 127.53C176.74 131.687 182.183 133.765 188.489 133.765Z" fill="#fff"/>
<path d="M0 125.129V102.999L65.4458 0H83.9725V31.5073H72.6758L28.6184 101.048V102.249H119.971V125.129H0ZM73.5795 153.636V118.378L73.8807 108.475V0H100.24V153.636H73.5795Z" fill="#fff"/>
</svg>
