<svg width="16" height="16" viewBox="0 0 11 11" fill="none" xmlns="http://www.w3.org/2000/svg">
<path d="M7.09989 2.86064L9.05605 4.81679M2.81809 9.62024L3.8831 9.4681C4.27814 9.41166 4.64422 9.22863 4.92639 8.94646L9.56361 4.30923C10.1038 3.76906 10.1038 2.89326 9.56361 2.35308V2.35308C9.02343 1.8129 8.14763 1.8129 7.60745 2.35308L2.97023 6.9903C2.68806 7.27247 2.50502 7.63854 2.44859 8.03358L2.29644 9.0986C2.25297 9.40289 2.51379 9.66371 2.81809 9.62024Z" stroke="white" stroke-width="0.6" stroke-linecap="round" stroke-linejoin="round"/>
<path d="M2.16592 2.50736C2.03743 2.21977 1.6292 2.21977 1.5007 2.50736L1.2454 3.07875L0.674002 3.33405C0.386417 3.46255 0.386417 3.87078 0.674002 3.99928L1.2454 4.25458L1.5007 4.82598C1.6292 5.11356 2.03743 5.11356 2.16592 4.82598L2.42123 4.25458L2.99262 3.99928C3.28021 3.87078 3.28021 3.46255 2.99262 3.33405L2.42123 3.07875L2.16592 2.50736Z" fill="white"/>
<path d="M4.34672 1.51879C4.26106 1.32707 3.9889 1.32707 3.90324 1.51879L3.73304 1.89972L3.35211 2.06993C3.16038 2.15559 3.16038 2.42774 3.35211 2.51341L3.73304 2.68361L3.90324 3.06454C3.9889 3.25626 4.26106 3.25626 4.34672 3.06454L4.51692 2.68361L4.89785 2.51341C5.08958 2.42774 5.08958 2.15559 4.89785 2.06993L4.51692 1.89972L4.34672 1.51879Z" fill="white"/>
</svg>
