<svg width="21" height="20" viewBox="0 0 21 20" fill="none" xmlns="http://www.w3.org/2000/svg">
<path d="M14.0916 2.28823C11.0404 -0.762744 6.07442 -0.762744 3.02324 2.28823C-0.0272776 5.33987 -0.0272776 10.3049 3.02324 13.3565C5.7404 16.0729 9.97223 16.3639 13.0214 14.2428C13.0856 14.5464 13.2324 14.8361 13.4685 15.0722L17.912 19.5154C18.5596 20.1615 19.606 20.1615 20.2502 19.5154C20.8971 18.8685 20.8971 17.8222 20.2502 17.1774L15.8067 12.7329C15.5719 12.4987 15.2815 12.3512 14.9779 12.2871C17.1005 9.23742 16.8094 5.00653 14.0916 2.28823ZM12.6887 11.9537C10.4108 14.2316 6.70344 14.2316 4.42613 11.9537C2.14949 9.67592 2.14949 5.96951 4.42613 3.69169C6.70344 1.41454 10.4108 1.41454 12.6887 3.69169C14.9667 5.96951 14.9667 9.67592 12.6887 11.9537Z" fill="#0C0B0B"/>
</svg>
