<svg width="30" height="30" viewBox="0 0 30 30" fill="none" xmlns="http://www.w3.org/2000/svg">
<path d="M25.8585 7.46239L25.8584 7.46232L25.8504 7.47038L24.0404 9.28038C23.703 9.61778 23.5832 10.1424 23.8054 10.5941C24.0052 11.0132 24.1836 11.4364 24.3329 11.8742C24.4961 12.3765 24.9919 12.65 25.45 12.65H28C28.471 12.65 28.85 13.029 28.85 13.5V16.5C28.85 16.971 28.471 17.35 28 17.35H25.45C24.9919 17.35 24.4961 17.6235 24.3329 18.1258C24.1835 18.5637 24.0052 18.9868 23.8054 19.4059C23.5832 19.8576 23.703 20.3822 24.0404 20.7196L25.8504 22.5296L25.8503 22.5297L25.8585 22.5376C26.0132 22.687 26.1 22.8943 26.1 23.13C26.1 23.3657 26.0132 23.573 25.8585 23.7224L25.8584 23.7223L25.8504 23.7304L23.7304 25.8504L23.7304 25.8504L23.7263 25.8545C23.4233 26.1629 22.848 26.1688 22.5296 25.8504L20.7196 24.0404C20.3822 23.703 19.8576 23.5832 19.4059 23.8054C18.9868 24.0052 18.5637 24.1835 18.1258 24.3329C17.6235 24.4961 17.35 24.9919 17.35 25.45V28C17.35 28.471 16.971 28.85 16.5 28.85H13.5C13.029 28.85 12.65 28.471 12.65 28V25.45C12.65 24.9919 12.3765 24.4961 11.8742 24.3329C11.4381 24.1842 11.0167 24.0067 10.5993 23.8078C10.1486 23.5782 9.61212 23.7086 9.28038 24.0404L7.47038 25.8504C7.15195 26.1688 6.5767 26.1629 6.27367 25.8545L6.27369 25.8544L6.26962 25.8504L4.14962 23.7304L4.14969 23.7303L4.14149 23.7224C3.98676 23.573 3.9 23.3657 3.9 23.13C3.9 22.8943 3.98676 22.687 4.14149 22.5376L4.14156 22.5377L4.14962 22.5296L5.95962 20.7196C6.29703 20.3822 6.41684 19.8576 6.19461 19.4058C5.99475 18.9867 5.81643 18.5636 5.6671 18.1257C5.50391 17.6235 5.00808 17.35 4.55 17.35H2C1.52899 17.35 1.15 16.971 1.15 16.5V13.5C1.15 13.029 1.52899 12.65 2 12.65H4.55C5.00807 12.65 5.50388 12.3765 5.66709 11.8743C5.81643 11.4364 5.99475 11.0133 6.19462 10.5941C6.41684 10.1424 6.29702 9.61778 5.95962 9.28038L4.14962 7.47038C3.81127 7.13203 3.81697 6.59667 4.14567 6.27353L4.14569 6.27355L4.14962 6.26962L6.26962 4.14962L6.26964 4.14964L6.27367 4.14553C6.5767 3.83709 7.15195 3.83119 7.47038 4.14962L9.28038 5.95962C9.61778 6.29702 10.1424 6.41684 10.5941 6.19462C11.0133 5.99475 11.4364 5.81643 11.8743 5.66709C12.3765 5.50388 12.65 5.00807 12.65 4.55V2C12.65 1.52899 13.029 1.15 13.5 1.15H16.5C16.971 1.15 17.35 1.52899 17.35 2V4.55C17.35 5.00808 17.6235 5.50391 18.1257 5.6671C18.5636 5.81643 18.9867 5.99475 19.4058 6.19461C19.8576 6.41684 20.3822 6.29703 20.7196 5.95962L22.5296 4.14962C22.848 3.83119 23.4233 3.83709 23.7263 4.14553L23.7263 4.14555L23.7304 4.14962L25.8504 6.26962L25.8503 6.26969L25.8585 6.27761C26.0132 6.427 26.1 6.6343 26.1 6.87C26.1 7.1057 26.0132 7.313 25.8585 7.46239ZM8.85 15C8.85 18.389 11.611 21.15 15 21.15C18.389 21.15 21.15 18.389 21.15 15C21.15 11.611 18.389 8.85 15 8.85C11.611 8.85 8.85 11.611 8.85 15Z" stroke="white" stroke-width="1.3"/>
</svg>
