<svg width="18" height="19" viewBox="0 0 19 19" fill="none" xmlns="http://www.w3.org/2000/svg">
<path d="M6.18165 1.8059H15.4248C15.3809 1.18335 15.0293 0.861084 14.3482 0.861084H7.25098C6.57715 0.861084 6.22559 1.18335 6.18165 1.8059ZM4.67286 3.83471H16.9336C16.8238 3.16821 16.5088 2.802 15.7764 2.802H5.83008C5.09766 2.802 4.78272 3.16821 4.67286 3.83471ZM7.60254 17.0769H16.1719C17.6953 17.0769 18.4717 16.3152 18.4717 14.8064V7.28442C18.4717 5.77563 17.6953 5.01391 16.1719 5.01391H5.42725C3.88916 5.01391 3.12745 5.77563 3.12745 7.28442V9.72338C3.3252 9.70141 3.52295 9.68676 3.71338 9.68676C3.91114 9.68676 4.10889 9.70141 4.30665 9.72338V7.35034C4.30665 6.58862 4.70948 6.19311 5.4419 6.19311H16.1499C16.875 6.19311 17.2925 6.58862 17.2925 7.35034V14.7405C17.2925 15.5022 16.875 15.8977 16.1499 15.8977H8.19581C8.05665 16.3225 7.85157 16.718 7.60254 17.0769ZM3.72071 18.1389C5.73487 18.1389 7.44141 16.447 7.44141 14.4182C7.44141 12.3748 5.76416 10.6975 3.72071 10.6975C1.67725 10.6975 0 12.3748 0 14.4182C0 16.4617 1.67725 18.1389 3.72071 18.1389ZM2.51221 15.8904V12.9314C2.51221 12.6238 2.81983 12.4993 3.09082 12.6531L5.47852 14.074C5.76416 14.2424 5.78614 14.5793 5.52247 14.7332L3.09082 16.1687C2.81983 16.3298 2.51221 16.198 2.51221 15.8904Z" fill="#969696"/>
</svg>
