<svg width="16" height="16" viewBox="0 0 11 11" fill="none" xmlns="http://www.w3.org/2000/svg">
<path d="M4.58333 5.5L5.5 6.41667M5.5 6.41667L6.41667 7.33333M5.5 6.41667L6.41667 5.5M5.5 6.41667L4.58333 7.33333M8.70833 2.75L8.33557 8.34146C8.28742 9.06375 7.6875 9.625 6.96361 9.625H4.03639C3.3125 9.625 2.71258 9.06375 2.66443 8.34146L2.29167 2.75M6.875 2.75H9.625M6.875 2.75L6.5664 1.82419C6.47698 1.55594 6.22594 1.375 5.94318 1.375H5.05682C4.77406 1.375 4.52302 1.55594 4.4336 1.82419L4.125 2.75M6.875 2.75H4.125M1.375 2.75H4.125" stroke="white" stroke-width="0.6" stroke-linecap="round" stroke-linejoin="round"/>
</svg>
