<svg width="52" height="52" viewBox="0 0 52 52" fill="none" xmlns="http://www.w3.org/2000/svg">
<path d="M39.9834 44.9231H12.0187C10.3957 44.9214 8.8397 44.2759 7.69209 43.1282C6.54448 41.9806 5.89898 40.4246 5.89722 38.8017V36.7329H7.56122V38.8025C7.56254 39.9843 8.03258 41.1173 8.86823 41.9529C9.70388 42.7886 10.8369 43.2586 12.0187 43.2599H39.9834C41.1652 43.2586 42.2982 42.7886 43.1339 41.9529C43.9695 41.1173 44.4395 39.9843 44.4409 38.8025V36.7329H46.1049V38.8025C46.1029 40.4253 45.4573 41.9811 44.3097 43.1285C43.1621 44.276 41.6062 44.9214 39.9834 44.9231Z" fill="url(#paint0_linear_300_303)"/>
<path d="M22.435 38.1458H20.771V23.5795H13.8704L25.9972 6.4707L38.1323 23.5795H31.2313V32.7091H29.5673V21.9155H34.9129L25.998 9.34693L17.0894 21.9155H22.435V38.1458Z" fill="url(#paint1_linear_300_303)"/>
<defs>
<linearGradient id="paint0_linear_300_303" x1="26.001" y1="36.7329" x2="26.001" y2="44.9231" gradientUnits="userSpaceOnUse">
<stop stop-color="#E63F6F"/>
<stop offset="1" stop-color="#7A2B75"/>
</linearGradient>
<linearGradient id="paint1_linear_300_303" x1="26.0013" y1="6.4707" x2="26.0013" y2="38.1458" gradientUnits="userSpaceOnUse">
<stop stop-color="#E63F6F"/>
<stop offset="1" stop-color="#7A2B75"/>
</linearGradient>
</defs>
</svg>
