<svg width="19" height="17" viewBox="0 0 15 14" fill="none" xmlns="http://www.w3.org/2000/svg">
<path d="M3.16748 13.9648H12.0518C13.5898 13.9648 14.3516 13.2031 14.3516 11.6943V2.75146C14.3516 1.24268 13.5898 0.480957 12.0518 0.480957H3.16748C1.63672 0.480957 0.867676 1.23535 0.867676 2.75146V11.6943C0.867676 13.2104 1.63672 13.9648 3.16748 13.9648ZM3.18213 12.7856C2.44971 12.7856 2.04688 12.3975 2.04688 11.6357V2.81006C2.04688 2.04834 2.44971 1.66016 3.18213 1.66016H12.0371C12.7622 1.66016 13.1724 2.04834 13.1724 2.81006V11.6357C13.1724 12.3975 12.7622 12.7856 12.0371 12.7856H3.18213ZM6.25098 10.0757L10.4185 7.60742C10.7261 7.43164 10.7188 7.00684 10.4185 6.82373L6.25098 4.35547C5.93604 4.17236 5.51855 4.31152 5.51855 4.67041V9.7607C5.51855 10.1123 5.90674 10.2808 6.25098 10.0757Z" fill="#969696"/>
</svg>
