<svg width="19" height="15" viewBox="0 0 19 15" fill="none" xmlns="http://www.w3.org/2000/svg">
<path d="M3.35059 14.126H15.7944C16.605 14.126 17.2202 13.916 17.6401 13.4961C18.0601 13.0762 18.27 12.4683 18.27 11.6724V2.77344C18.27 1.97266 18.0601 1.3623 17.6401 0.94238C17.2202 0.52246 16.605 0.3125 15.7944 0.3125H3.35059C2.54004 0.3125 1.92236 0.52246 1.49756 0.94238C1.07764 1.35742 0.867676 1.96777 0.867676 2.77344V11.6724C0.867676 12.4683 1.07764 13.0762 1.49756 13.4961C1.92236 13.916 2.54004 14.126 3.35059 14.126ZM3.48242 12.4927C3.16016 12.4927 2.91357 12.4121 2.74268 12.251C2.57666 12.085 2.49365 11.8335 2.49365 11.4966V2.94189C2.49365 2.60498 2.57666 2.35352 2.74268 2.1875C2.91357 2.02148 3.16016 1.93848 3.48242 1.93848H15.6553C15.9727 1.93848 16.2168 2.02148 16.3877 2.1875C16.5586 2.35352 16.644 2.60498 16.644 2.94189V11.4966C16.644 11.8335 16.5586 12.085 16.3877 12.251C16.2168 12.4121 15.9727 12.4927 15.6553 12.4927H3.48242ZM8.19189 10.1196L12.4399 7.63672C12.5962 7.54395 12.6719 7.40723 12.667 7.22656C12.667 7.0459 12.5913 6.91162 12.4399 6.82373L8.19189 4.31885C8.03076 4.22607 7.86475 4.21631 7.69385 4.28955C7.52295 4.35791 7.4375 4.48242 7.4375 4.66309V9.7827C7.4375 9.9634 7.52051 10.0903 7.68652 10.1636C7.85254 10.2368 8.021 10.2222 8.19189 10.1196Z" fill="#969696"/>
</svg>
