<svg width="32" height="32" viewBox="0 0 32 32" fill="none" xmlns="http://www.w3.org/2000/svg">
<path d="M21.59 18.598L21.59 18.598C22.046 18.3347 22.4247 17.956 22.688 17.4999C22.9513 17.0439 23.0899 16.5266 23.0899 16C23.0899 15.4734 22.9513 14.9561 22.688 14.5001C22.4247 14.044 22.046 13.6653 21.59 13.402L21.59 13.402L15.41 9.83399C14.9539 9.57069 14.4366 9.43207 13.91 9.43206C13.3834 9.43206 12.8661 9.57067 12.41 9.83397C11.954 10.0973 11.5753 10.476 11.312 10.932C11.0486 11.3881 10.91 11.9054 10.91 12.432V19.568C10.91 20.0946 11.0486 20.6119 11.312 21.068C11.5753 21.524 11.954 21.9027 12.41 22.166C12.8661 22.4293 13.3834 22.5679 13.91 22.5679C14.4366 22.5679 14.9539 22.4293 15.41 22.166L21.59 18.598ZM7.00031 5.5H25.9997C27.1928 5.50151 28.3366 5.97613 29.1802 6.81977C30.0239 7.66349 30.4986 8.8074 30.5 10.0006V21.9994C30.4986 23.1926 30.0239 24.3365 29.1802 25.1802C28.3365 26.0239 27.1926 26.4986 25.9994 26.5H7.0006C5.8074 26.4986 4.66349 26.0239 3.81977 25.1802C2.97613 24.3366 2.50151 23.1928 2.5 21.9997V10.0003C2.50151 8.80722 2.97613 7.66342 3.81977 6.81977C4.66342 5.97613 5.80722 5.50151 7.00031 5.5Z" stroke="white"/>
</svg>
