<svg width="25" height="20" viewBox="0 0 25 20" fill="none" xmlns="http://www.w3.org/2000/svg">
<path stroke="1.3" d="M3.92425 19.2249H21.0858C22.2038 19.2249 23.0522 18.936 23.6313 18.3584C24.2105 17.7809 24.5 16.9447 24.5 15.85V3.60979C24.5 2.50835 24.2105 1.66882 23.6313 1.09123C23.0522 0.513646 22.2038 0.224854 21.0858 0.224854H3.92425C2.8064 0.224854 1.95454 0.513646 1.36869 1.09123C0.789567 1.66211 0.5 2.50162 0.5 3.60979V15.85C0.5 16.9447 0.789567 17.7809 1.36869 18.3584C1.95454 18.936 2.8064 19.2249 3.92425 19.2249ZM4.10606 16.9783C3.66162 16.9783 3.32155 16.8674 3.08587 16.6459C2.8569 16.4175 2.74242 16.0716 2.74242 15.6082V3.84149C2.74242 3.37808 2.8569 3.03221 3.08587 2.80385C3.32155 2.5755 3.66162 2.46133 4.10606 2.46133H20.894C21.3317 2.46133 21.6684 2.5755 21.9041 2.80385C22.1398 3.03221 22.2575 3.37808 22.2575 3.84149V15.6082C22.2575 16.0716 22.1398 16.4175 21.9041 16.6459C21.6684 16.8674 21.3317 16.9783 20.894 16.9783H4.10606ZM10.601 13.7142L16.4596 10.2991C16.6751 10.1715 16.7795 9.98341 16.7728 9.73491C16.7728 9.48642 16.6684 9.30172 16.4596 9.18083L10.601 5.73545C10.3788 5.60784 10.1498 5.59441 9.91415 5.69515C9.67846 5.78918 9.56062 5.96044 9.56062 6.20894V13.2508C9.56062 13.4993 9.6751 13.6739 9.90405 13.7747C10.133 13.8754 10.3653 13.8553 10.601 13.7142Z" fill="white"/>
</svg>
