<svg width="17" height="12" viewBox="0 0 17 12" fill="none" xmlns="http://www.w3.org/2000/svg">
<path fill-rule="evenodd" clip-rule="evenodd" d="M15.1424 0.798299C15.8329 0.979644 16.3768 1.51112 16.5621 2.18468C16.9061 3.41405 16.89 5.97721 16.89 5.97721C16.89 5.97721 16.8876 8.52624 16.554 9.75483C16.3663 10.4276 15.82 10.9583 15.1304 11.1389C13.8686 11.4607 8.82089 11.4552 8.82089 11.4552C8.82089 11.4552 3.78685 11.4497 2.51222 11.1122C1.82093 10.9308 1.27708 10.3993 1.09177 9.72657C0.761428 8.50975 0.76465 5.94738 0.76465 5.94738C0.76465 5.94738 0.767874 3.39757 1.10063 2.1682C1.28755 1.49542 1.84671 0.952167 2.5235 0.772393C3.78604 0.449741 8.83298 0.455237 8.83298 0.455237C8.83298 0.455237 13.8807 0.460732 15.1424 0.798299ZM7.22224 3.59932L7.21821 8.30956L11.4175 5.95837L7.22224 3.59932Z" fill="white"/>
</svg>
